<svg xmlns="http://www.w3.org/2000/svg" viewBox="0 0 672.85 156.14"><defs><style>.cls-1{fill:#35a0b9;}.cls-2{fill:#0089a9;}.cls-3{fill:#fff;}</style></defs><title>Brimalog_logo</title><g id="Capa_2" data-name="Capa 2"><g id="Capa_1-2" data-name="Capa 1"><path class="cls-1" d="M35.48,16.88A65.35,65.35,0,0,0,22.26,34.55l-.63,1.26-.31.63-.16.32-.14.32c-.37.87-.74,1.73-1.12,2.6l-1,2.65c-.32.9-.59,1.81-.88,2.71a64.14,64.14,0,0,0-2.34,11.21c-.1,1-.25,1.92-.28,2.85l-.08,1.41c0,.47-.07.92-.07,1.44,0,1,0,2,0,3s.07,1.93.11,2.9a65.11,65.11,0,0,0,1.77,11.51,63.7,63.7,0,0,0,26.37,37.61,62.36,62.36,0,0,0,21.37,9.17l.35.09.36.06.71.14,1.42.27c.48.1,1,.16,1.44.23l1.43.2.72.1.69.06,1.39.13c.88.1,2,.12,3,.17l.77,0,.39,0a1.2,1.2,0,0,0,.19,0h1.41l.38,0c.13,0,.05,0,.12,0h.18l.7,0,1.41-.1,1.4-.17c.47-.06.94-.1,1.4-.18l1.38-.24.7-.12c.23,0,.45-.1.68-.15A49.89,49.89,0,0,0,98,123a49.34,49.34,0,0,0,9.37-5.72c.74-.53,1.41-1.15,2.11-1.72.35-.28.68-.61,1-.91l1-.92,1-1c.31-.33.64-.63.93-1l.9-1,.45-.5.42-.52a49.8,49.8,0,0,0,5.86-8.86,48.54,48.54,0,0,0,3.73-9.7l.32-1.25c.1-.41.18-.83.27-1.25s.17-.83.26-1.25.13-.84.2-1.26.14-.84.18-1.26.09-.84.14-1.26c.11-.86.13-1.63.18-2.42l0-.59V80c0-.46,0-.93,0-1.4V77.43l-.06-1.25c0-.83-.12-1.65-.19-2.47l0-.61c0-.21-.06-.41-.09-.61l-.17-1.22a47.95,47.95,0,0,0-12-25A48.49,48.49,0,0,0,100.28,36a45,45,0,0,0-7.42-3,47,47,0,0,0-7.43-1.69c-.61-.09-1.23-.14-1.84-.21-.3,0-.61-.08-.9-.1l-.84,0L81,30.84l-.42,0h-.5l-2,0h-.25c-.09,0,.25,0,.06,0h-.11l-.44,0-.87,0L74.74,31l-1.68.17-1.65.23a46.35,46.35,0,0,0-20.69,8.71,46.45,46.45,0,0,0-6.22,5.57A57.14,57.14,0,0,0,40,51.27l-2.8,5.16a6.14,6.14,0,0,0-.94,3.48,44.91,44.91,0,0,0,2.45,5.94A44.13,44.13,0,0,0,50.51,80.43l1,.74a28.64,28.64,0,0,1-.29-4.06,27.63,27.63,0,0,1,53.52-9.61c1.94,5.23,2.66,12.19.75,17.52-.14.44-.29.88-.45,1.35s-.37.92-.58,1.4l-.46,1-.22.41-.81,1.5a29.75,29.75,0,0,1-2.71,3.8,27.56,27.56,0,0,1-21.43,10.2c-9.21,0-19.21-3.78-27.05-8.45A55.14,55.14,0,0,1,34.91,80.75a54,54,0,0,1-10-34.61l0-.71c0-.24,0-.45.05-.74l.17-1.6c.09-1.09.28-2.08.44-3.11.07-.51.18-1,.29-1.52l.32-1.52c.12-.5.26-1,.39-1.5s.25-1,.4-1.49a54.58,54.58,0,0,1,4.84-11.29c.24-.45.52-.88.78-1.31l.81-1.3.86-1.25c.29-.42.56-.84.88-1.24s.75-1,1.14-1.49C36.05,16.34,35.76,16.6,35.48,16.88Z"/><path class="cls-2" d="M113.13,6.43A64.81,64.81,0,0,0,83,0l-3.83.1a47.05,47.05,0,0,0-19,4.54A46.38,46.38,0,0,0,44.13,17.35l-.82,1-.77,1.06c-.54.7-1,1.44-1.48,2.17-.25.36-.46.74-.69,1.12l-.66,1.13L39.09,25c-.2.39-.42.77-.59,1.17A46,46,0,0,0,36,32.56a62.72,62.72,0,0,1,5.93-4.72,62,62,0,0,1,12-6.57A61.28,61.28,0,0,1,69.45,17.2c.71-.09,1.43-.16,2.15-.24l2.19-.15c.74,0,1.48-.07,2.23-.08h2.4l2,.09.52,0,.61.05,1.23.1,1.23.12c.41,0,.79.1,1.18.15.79.12,1.58.21,2.36.35a60.73,60.73,0,0,1,9.53,2.46,59.14,59.14,0,0,1,9.4,4.17A61.21,61.21,0,0,1,123.34,37.9a59.9,59.9,0,0,1,14.11,31.76c.05.51.11,1,.17,1.52,0,.25.06.51.08.76l0,.76c.06,1,.16,2,.15,3.07,0,.51,0,1,0,1.54v.58s0,.39,0,.32l0,.7c0,.47,0,.93,0,1.4l0,.35V81l-.07.81c-.09,1.08-.17,2.19-.33,3.2l-.22,1.54c-.07.52-.18,1-.27,1.55l-.3,1.54c-.11.51-.24,1-.36,1.54s-.24,1-.38,1.53-.29,1-.44,1.52A59.32,59.32,0,0,1,130.5,106a60.57,60.57,0,0,1-7.44,10.55l-.54.62-.55.59L120.84,119c-.37.4-.77.76-1.16,1.14l-1.18,1.13-1.24,1.08c-.41.35-.81.72-1.25,1-.86.67-1.7,1.38-2.6,2a58.53,58.53,0,0,1-24.17,10.35c-.27,0-.54.11-.82.15l-.82.12-1.65.23c-.56.08-1.11.11-1.66.17s-1.11.11-1.67.15L81,136.6l-.83,0H78.45l-1,0H77l-.38,0-.77-.05c-1-.08-2-.12-3.18-.28L71,136l-.85-.1-.81-.14-1.63-.28c-.54-.09-1.09-.17-1.62-.3l-1.62-.36-.8-.18-.41-.09-.39-.11A70.36,70.36,0,0,1,32.56,13.71c.35-.3.69-.61,1-.9C8.14,30.67-6.28,63.21,2.66,98.14a76.92,76.92,0,0,0,56.12,55.53c52.17,12.84,98.79-26.3,98.79-76.32A78.77,78.77,0,0,0,113.13,6.43Z"/><path class="cls-2" d="M78.79,62.64a13,13,0,1,1-13,13,13,13,0,0,1,13-13m0-8.87a21.83,21.83,0,1,0,21.82,21.82A21.82,21.82,0,0,0,78.79,53.77Z"/><path class="cls-3" d="M207.73,48.49H235.2c6.76,0,12.08,1.86,15.46,5.24a13.6,13.6,0,0,1,4.06,10.06V64c0,6.67-3.55,10.39-7.78,12.76C253.79,79.34,258,83.31,258,91.25v.17c0,10.82-8.79,16.22-22.14,16.22H207.73ZM241.79,66c0-3.88-3-6.08-8.54-6.08H220.41V72.41h12c5.74,0,9.38-1.86,9.38-6.26Zm-6.34,17.24h-15v13h15.46c5.75,0,9.21-2,9.21-6.43v-.16C245.08,85.67,242.12,83.22,235.45,83.22Z"/><path class="cls-3" d="M268.74,48.49h27.05c7.52,0,13.35,2.11,17.23,6,3.3,3.3,5.07,7.95,5.07,13.52v.17c0,9.55-5.15,15.55-12.67,18.34l14.45,21.12H304.66L292,88.72H281.76v18.92h-13Zm26.2,28.73c6.34,0,10-3.38,10-8.36v-.17c0-5.58-3.88-8.45-10.22-8.45H281.76v17Z"/><path class="cls-3" d="M330.43,48.49h13v59.15h-13Z"/><path class="cls-3" d="M358.24,48.49h14l15.55,25,15.55-25h14v59.15H404.46V69L387.81,94.29h-.34L371,69.28v38.36H358.24Z"/><path class="cls-3" d="M451.87,48.07h12l25.35,59.57H475.61L470.2,94.38h-25l-5.41,13.26H426.52Zm13.69,34.81L457.7,63.7l-7.86,19.18Z"/><path class="cls-3" d="M498.35,48.49h13V95.81h29.49v11.83h-42.5Z"/><path class="cls-3" d="M544.66,78.24v-.17c0-16.82,13.26-30.59,31.52-30.59s31.35,13.6,31.35,30.42v.17c0,16.81-13.27,30.59-31.52,30.59S544.66,95.05,544.66,78.24Zm49.26,0v-.17c0-10.14-7.43-18.59-17.91-18.59s-17.75,8.28-17.75,18.42v.17c0,10.14,7.44,18.59,17.92,18.59S593.92,88.38,593.92,78.24Z"/><path class="cls-3" d="M616.49,78.24v-.17c0-16.82,13.09-30.59,31-30.59,10.65,0,17.07,2.87,23.24,8.11l-8.2,9.89c-4.56-3.81-8.62-6-15.46-6-9.47,0-17,8.36-17,18.42v.17c0,10.81,7.44,18.76,17.92,18.76a20.81,20.81,0,0,0,12.25-3.55V84.83h-13.1V73.59h25.69V99.28a38.41,38.41,0,0,1-25.27,9.38C629.16,108.66,616.49,95.73,616.49,78.24Z"/></g></g></svg>